<svg width="40" height="40" viewBox="0 0 40 40" fill="none" xmlns="http://www.w3.org/2000/svg">
<mask id="mask0_1599_15057" style="mask-type:alpha" maskUnits="userSpaceOnUse" x="0" y="0" width="40" height="40">
<rect width="40" height="40" fill="#D9D9D9"/>
</mask>
<g mask="url(#mask0_1599_15057)">
<path d="M3.33301 40.0001V35.7951H36.6663V40.0001H3.33301ZM9.59384 27.7447H11.4068L26.8468 12.313L25.9401 11.3901L25.0255 10.4918L9.59384 25.9209V27.7447ZM7.49967 29.8388V25.0601L27.1184 5.45009C27.3298 5.23842 27.5654 5.08384 27.8251 4.98634C28.0845 4.88884 28.348 4.84009 28.6155 4.84009C28.8755 4.84009 29.1375 4.88884 29.4013 4.98634C29.665 5.08384 29.8997 5.2412 30.1055 5.45842L31.8884 7.23967C32.0987 7.43967 32.2558 7.67189 32.3597 7.93634C32.4636 8.20106 32.5155 8.46759 32.5155 8.73592C32.5155 8.99453 32.4627 9.25453 32.3572 9.51592C32.2516 9.77731 32.0954 10.0149 31.8884 10.2288L12.2676 29.8388H7.49967ZM26.8468 12.313L25.9401 11.3901L25.0255 10.4918L26.8468 12.313Z" fill="#0A0A0A"/>
</g>
</svg>
