<svg width="128" height="26" viewBox="0 0 128 26" fill="none" xmlns="http://www.w3.org/2000/svg">
<g id="Layer_1" clip-path="url(#clip0_176_9149)" filter="url(#filter0_d_176_9149)">
<path id="Vector" d="M58.1419 2.7207C56.5139 1.28516 54.1688 0.5625 51.0968 0.5625H46.9104C43.8385 0.5625 41.4933 1.28516 39.8653 2.7207C38.2372 4.14648 37.4232 6.25586 37.4232 9.04883C37.4232 11.8418 38.2372 13.9902 39.8653 15.4258C41.4933 16.8516 43.79 17.5547 46.7457 17.5547H51.2131C54.2075 17.5547 56.5139 16.8418 58.1419 15.4258C59.77 13.9902 60.584 11.8613 60.584 9.04883C60.584 6.23633 59.77 4.14648 58.1419 2.7207ZM55.8452 12.7793C54.8956 13.6094 53.3257 14.0391 51.2131 14.0391H46.7457C44.6622 14.0391 43.1117 13.6094 42.1426 12.7695C41.8422 12.5059 40.9022 11.6758 40.9022 9.04883C40.9022 6.42187 41.8325 5.64062 42.1426 5.37695C43.1214 4.50781 44.7203 4.07812 46.9007 4.07812H51.0871C53.2675 4.07812 54.8665 4.50781 55.8356 5.36719C56.1554 5.65039 57.0857 6.46094 57.0857 9.04883C57.0857 11.6367 56.1457 12.5059 55.8356 12.7793H55.8452Z" fill="white"/>
<path id="Vector_2" d="M15.2122 9.04883H18.9818V3.60937H23.1198V17.3203H26.841V3.60937H31.9189V9.04883H35.6789V0.5625H15.2122V9.04883Z" fill="white"/>
<path id="Vector_3" d="M4 3.6582H8.93257V17.3203H12.5375V0.611328H4V3.6582Z" fill="white"/>
<path id="Vector_4" d="M120.279 0.5625V7.42773H108.553V0.5625H104.832V17.3203H108.553V10.4746H120.279V17.3203H124V0.5625H120.279Z" fill="white"/>
<path id="Vector_5" d="M89.6658 13.1016C88.6871 12.2227 88.2025 10.836 88.2025 8.93166C88.2025 7.02737 88.6871 5.64065 89.6658 4.78127C90.6446 3.9219 92.1369 3.49221 94.1526 3.49221H102.273V0.494165L93.9006 0.445337C90.8287 0.425806 88.4835 1.1387 86.8555 2.57424C85.2275 4.00979 84.4135 6.12893 84.4135 8.9219C84.4135 11.7149 85.2275 13.8633 86.8555 15.2989C88.4835 16.7246 90.8287 17.4278 93.9006 17.4278H102.506V14.3809H94.1526C92.1369 14.3809 90.6446 13.9512 89.6658 13.0918V13.1016Z" fill="white"/>
<path id="Vector_6" d="M78.3665 11.3242C78.3665 12.5156 78.0854 13.3262 77.5331 13.7656C76.9904 14.1855 76.0601 14.4004 74.7421 14.4004H70.2553C68.9374 14.4004 67.9974 14.1855 67.445 13.7656C66.9024 13.3262 66.631 12.5156 66.631 11.3242V0.5625H62.9098V11.3242C62.9098 12.7012 63.123 13.8438 63.5397 14.7422C63.9564 15.6406 64.6541 16.3242 65.6329 16.7832C66.6116 17.2227 67.9393 17.4375 69.6351 17.4375H75.3817C77.0679 17.4375 78.4052 17.2227 79.384 16.7832C80.3627 16.334 81.0605 15.6504 81.4772 14.7422C81.8939 13.834 82.1071 12.6914 82.1071 11.3242V0.5625H78.3858V11.3242H78.3665Z" fill="white"/>
</g>
<defs>
<filter id="filter0_d_176_9149" x="0" y="0.445312" width="128" height="25.1094" filterUnits="userSpaceOnUse" color-interpolation-filters="sRGB">
<feFlood flood-opacity="0" result="BackgroundImageFix"/>
<feColorMatrix in="SourceAlpha" type="matrix" values="0 0 0 0 0 0 0 0 0 0 0 0 0 0 0 0 0 0 127 0" result="hardAlpha"/>
<feOffset dy="4"/>
<feGaussianBlur stdDeviation="2"/>
<feComposite in2="hardAlpha" operator="out"/>
<feColorMatrix type="matrix" values="0 0 0 0 0 0 0 0 0 0 0 0 0 0 0 0 0 0 0.25 0"/>
<feBlend mode="normal" in2="BackgroundImageFix" result="effect1_dropShadow_176_9149"/>
<feBlend mode="normal" in="SourceGraphic" in2="effect1_dropShadow_176_9149" result="shape"/>
</filter>
<clipPath id="clip0_176_9149">
<rect width="120" height="17.1094" fill="white" transform="translate(4 0.445312)"/>
</clipPath>
</defs>
</svg>
