<svg width="23" height="28" viewBox="0 0 23 28" fill="none" xmlns="http://www.w3.org/2000/svg">
<path d="M21.5001 9.86294C21.3479 9.97995 18.661 11.4803 18.661 14.8164C18.661 18.6752 22.08 20.0404 22.1824 20.0742C22.1666 20.1574 21.6392 21.9438 20.3797 23.7639C19.2566 25.3657 18.0837 26.9649 16.2994 26.9649C14.5151 26.9649 14.0559 25.9377 11.996 25.9377C9.98869 25.9377 9.27496 26.9987 7.64284 26.9987C6.01072 26.9987 4.87191 25.5165 3.56253 23.6963C2.04587 21.5589 0.820465 18.2384 0.820465 15.0869C0.820465 10.032 4.13719 7.35109 7.40143 7.35109C9.13589 7.35109 10.5817 8.47961 11.6707 8.47961C12.7071 8.47961 14.3235 7.28349 16.2968 7.28349C17.0446 7.28349 19.7316 7.35109 21.5001 9.86294ZM15.36 5.14347C16.1761 4.18398 16.7533 2.85264 16.7533 1.52131C16.7533 1.33669 16.7376 1.14947 16.7035 0.998657C15.3757 1.04806 13.7961 1.87494 12.8436 2.96965C12.0957 3.81214 11.3978 5.14347 11.3978 6.49301C11.3978 6.69583 11.4319 6.89865 11.4476 6.96365C11.5316 6.97925 11.668 6.99746 11.8045 6.99746C12.9958 6.99746 14.4941 6.20698 15.36 5.14347Z" fill="white"/>
</svg>
