<svg id="Layer_1" data-name="Layer 1" xmlns="http://www.w3.org/2000/svg" viewBox="0 0 355.38 355.38"><title>Girona FC logo - Brandlogos.net</title><path d="M605.3,401.45A177.66,177.66,0,1,1,427.64,223.79,177.66,177.66,0,0,1,605.3,401.45" transform="translate(-249.94 -223.76)" style="fill:#fff"/><path d="M427.64,229.38A172.07,172.07,0,1,1,255.57,401.45,172.07,172.07,0,0,1,427.64,229.38m0-5.63a177.69,177.69,0,1,0,125.65,52,176.53,176.53,0,0,0-125.65-52" transform="translate(-249.94 -223.76)" style="fill:#cf0a2c"/><path d="M594.08,401.45A166.44,166.44,0,1,1,427.64,235,166.44,166.44,0,0,1,594.08,401.45" transform="translate(-249.94 -223.76)" style="fill:#cf0a2c"/><path d="M427.64,289.68A111.77,111.77,0,1,0,539.4,401.45,111.89,111.89,0,0,0,427.64,289.68" transform="translate(-249.94 -223.76)" style="fill:#fff"/><polygon points="84 267.32 94.48 277.32 91.85 280.08 84.4 272.96 81.6 275.89 88.17 282.16 85.55 284.92 78.97 278.65 73.89 283.98 70.86 281.09 84 267.32" style="fill:#fff"/><path d="M341.89,513l6.15-9,3.45,2.37-6.09,8.88c-1.75,2.56-1.38,4.75.73,6.2s4.26,1,6-1.45l6.17-9,3.45,2.37-6.07,8.86c-3.26,4.75-7.53,5.26-11.74,2.37s-5.18-7-2-11.63" transform="translate(-249.94 -223.76)" style="fill:#fff"/><polygon points="119.34 297.88 114.11 295.42 115.75 291.92 130.01 298.63 128.37 302.12 123.13 299.66 116.68 313.38 112.89 311.6 119.34 297.88" style="fill:#fff"/><path d="M384.55,524.09l8.49,2.45a6.87,6.87,0,0,1,4.31,3,4.37,4.37,0,0,1,.36,3.47l0,.05a4.42,4.42,0,0,1-3.54,3.25c1.88,1.42,2.83,3,2.13,5.48l0,.05c-1,3.34-4.16,4.23-8.29,3l-8.7-2.51Zm5.47,13.2L385.37,536l-1.16,4,4.78,1.38c1.78.51,3,.19,3.42-1.16l0-.05c.35-1.23-.34-2.25-2.4-2.84m3.49-4.76c.35-1.2-.4-2.15-2.1-2.64l-4-1.14-1.11,3.86,3.71,1.07c1.78.51,3.06.26,3.46-1.1Z" transform="translate(-249.94 -223.76)" style="fill:#fff"/><path d="M403.18,539V539a10.11,10.11,0,0,1,20.12,2V541a10.11,10.11,0,0,1-20.12-2m15.76,1.61v-.05a5.78,5.78,0,0,0-5.12-6.53,5.69,5.69,0,0,0-6.28,5.31v.05a5.78,5.78,0,0,0,5.12,6.53,5.69,5.69,0,0,0,6.28-5.31" transform="translate(-249.94 -223.76)" style="fill:#fff"/><polygon points="179.69 307.57 183.87 307.31 184.83 322.5 194.29 321.9 194.53 325.7 180.89 326.56 179.69 307.57" style="fill:#fff"/><path d="M460.28,537.14l0-.05a9.67,9.67,0,0,1,6.57-12.34,9.81,9.81,0,0,1,8,.58l-1.64,3.72a7,7,0,0,0-5.28-.61,5.64,5.64,0,0,0-3.52,7.3l0,.05c1,3.12,3.93,5,7,4.08a6.87,6.87,0,0,0,4.12-3.61l3.34,1.78a9.73,9.73,0,0,1-6.45,5.55,9.61,9.61,0,0,1-12.22-6.46" transform="translate(-249.94 -223.76)" style="fill:#fff"/><polygon points="228.86 296.99 232.61 295.14 239.34 308.79 247.85 304.59 249.53 308 237.27 314.05 228.86 296.99" style="fill:#fff"/><path d="M500.8,521.59l-6.24-8.9,3.43-2.4,6.18,8.81c1.78,2.54,4,3,6.06,1.49s2.47-3.62.74-6.1l-6.26-8.92,3.43-2.4L514.3,512c3.31,4.72,2.28,8.89-1.9,11.82s-8.38,2.39-11.6-2.19" transform="translate(-249.94 -223.76)" style="fill:#fff"/><path d="M512.6,499.35l6.28-6.21a6.87,6.87,0,0,1,4.72-2.3,4.36,4.36,0,0,1,3.2,1.38l0,0a4.43,4.43,0,0,1,1.11,4.68c2.16-.95,4-1,5.82.82l0,0c2.45,2.47,1.66,5.7-1.4,8.72L526,512.88Zm11.74-3.7c-.88-.89-2.07-.7-3.33.54l-2.94,2.9L520.9,502l2.74-2.71c1.31-1.3,1.72-2.55.73-3.55Zm2.45,5.38-3.44,3.4,2.94,3,3.54-3.5c1.31-1.3,1.65-2.55.66-3.55l0,0c-.9-.91-2.13-.8-3.65.71" transform="translate(-249.94 -223.76)" style="fill:#fff"/><path d="M323.28,308.38l-.07-.08a19.28,19.28,0,0,1,1.94-27.57c5-4.32,9.25-5.58,14.35-5.64l.1,6.56a14.83,14.83,0,0,0-10.66,3.87c-5.27,4.57-5.28,12.65-.53,18.13l.07.08c5.1,5.88,12.73,6.85,18.57,1.79a15.45,15.45,0,0,0,5-8.15L347.44,292l-7.31,6.33L336.34,294l12.18-10.55,10.41,12a24.13,24.13,0,0,1-8.07,14.79c-8.95,7.75-20.35,6.47-27.57-1.86" transform="translate(-249.94 -223.76)" style="fill:#fff"/><rect x="360.8" y="259.11" width="6.65" height="37.84" transform="translate(-336.86 -26.02) rotate(-27.27)" style="fill:#fff"/><path d="M374.39,252.25l16.34-4.16c4.61-1.17,8.57-.73,11.51,1a11.44,11.44,0,0,1,5.05,7.14l0,.1c1.54,6-1.16,10.56-5.86,13.32L414.89,281l-7.65,1.95L395,272.44l-8.07,2.05,3.26,12.78-6.44,1.64Zm20.5,14.13c4.61-1.17,6.93-4.33,6-8l0-.11c-1-3.93-4.38-5.35-9.14-4.14l-9.37,2.39,3.14,12.31Z" transform="translate(-249.94 -223.76)" style="fill:#fff"/><path d="M416.25,261.85v-.11a19.38,19.38,0,0,1,21-18.35c11.6.69,19.17,10,18.53,20.6v.11a19.38,19.38,0,0,1-21,18.35c-11.6-.69-19.17-10-18.53-20.6m32.53,1.94v-.11c.44-7.34-4.54-13.75-12-14.2s-13.09,5.23-13.53,12.57v.11c-.44,7.34,4.54,13.7,12,14.15s13.09-5.17,13.53-12.51" transform="translate(-249.94 -223.76)" style="fill:#fff"/><polygon points="221.65 25.31 227.36 27.62 236.31 59.49 246.14 35.24 252.2 37.7 237.99 72.77 232.82 70.67 223.6 37.88 213.49 62.83 207.43 60.37 221.65 25.31" style="fill:#fff"/><path d="M530.59,281.6l4.59,4.11-13,39.5L517,320.52l3.23-9.37-13.34-11.92-9,4.22-5.08-4.54Zm-8.29,23.54,5.21-15.64-14.92,7Z" transform="translate(-249.94 -223.76)" style="fill:#fff"/><path d="M322.06,401.27,427.58,295.71a105.35,105.35,0,0,0-36.76,6.61L328.65,364.5a105.34,105.34,0,0,0-6.59,36.76" transform="translate(-249.94 -223.76)" style="fill:#cf0a2c"/><path d="M464.47,500.25l62.14-62.16a105.36,105.36,0,0,0,6.6-36.78L427.7,506.86a105.33,105.33,0,0,0,36.77-6.61" transform="translate(-249.94 -223.76)" style="fill:#cf0a2c"/><path d="M457.77,325.85l18.35-18.36a104.81,104.81,0,0,0-21.79-8.37l-11.64,11.65Z" transform="translate(-249.94 -223.76)" style="fill:#cf0a2c"/><path d="M337.14,416.36,325.48,428a104.85,104.85,0,0,0,8.38,21.79l18.36-18.37Z" transform="translate(-249.94 -223.76)" style="fill:#cf0a2c"/><path d="M488,356l21.48-21.49a106.14,106.14,0,0,0-15.08-15.08L472.88,341Z" transform="translate(-249.94 -223.76)" style="fill:#cf0a2c"/><path d="M367.33,446.55,345.84,468a106.25,106.25,0,0,0,15.09,15.08l21.48-21.49Z" transform="translate(-249.94 -223.76)" style="fill:#cf0a2c"/><path d="M518.13,386.21l11.66-11.66a104.79,104.79,0,0,0-8.38-21.79L503,371.12Z" transform="translate(-249.94 -223.76)" style="fill:#cf0a2c"/><path d="M397.49,476.71l-18.36,18.37a104.87,104.87,0,0,0,21.79,8.37l11.65-11.65Z" transform="translate(-249.94 -223.76)" style="fill:#cf0a2c"/><polygon points="188.6 263.69 188.6 91.37 177.69 80.46 167.04 91.11 167.04 263.95 177.69 274.6 188.6 263.69" style="fill:#ffb700"/><polygon points="210.24 242.06 210.24 113 188.6 91.37 188.6 263.69 210.24 242.06" style="fill:#cf0a2c"/><polygon points="145.41 112.75 145.41 242.31 167.04 263.95 167.04 91.11 145.41 112.75" style="fill:#cf0a2c"/><polygon points="102.13 156.03 102.13 199.03 123.68 220.59 123.68 134.47 102.13 156.03" style="fill:#cf0a2c"/><polygon points="253.52 198.77 253.52 156.29 231.97 134.74 231.97 220.32 253.52 198.77" style="fill:#cf0a2c"/><polygon points="123.68 134.47 123.68 220.59 145.41 242.31 145.41 112.75 123.68 134.47" style="fill:#ffb700"/><polygon points="80.63 177.53 102.13 199.03 102.13 156.03 80.63 177.53" style="fill:#ffb700"/><polygon points="231.97 220.31 231.97 134.73 210.24 113 210.24 242.05 231.97 220.31" style="fill:#ffb700"/><polygon points="274.75 177.53 253.52 156.29 253.52 198.77 274.75 177.53" style="fill:#ffb700"/><path d="M427.64,295.71,322.07,401.29,427.64,506.86,533.21,401.29ZM396.45,467.16l-21-21-20.82-20.82-24.07-24.06,24.07-24.07,20.82-20.82,21-21,20.9-20.9,10.29-10.29,10.54,10.54,20.9,20.9,21,21,20.81,20.81,23.81,23.82L500.89,425.1l-20.81,20.82-21,21-20.9,20.9-10.54,10.54-10.29-10.28Z" transform="translate(-249.94 -223.76)" style="fill:#fff"/><path d="M421,452.09c-1.51-1.32-1.51-1.32-4.07-1.32H398.08a16,16,0,0,1-16-16V359.6H473.3v75.22a16,16,0,0,1-16,16H438.48c-2.53,0-2.53,0-4.15,1.39l-6.69,5.72Z" transform="translate(-249.94 -223.76)" style="fill:#fff"/><path d="M463.13,363.3h-77.3v71.52a12.27,12.27,0,0,0,12.26,12.26h18.86c3.78,0,4.52.5,6.5,2.23l4.22,3.69,4.26-3.64c2.15-1.84,2.81-2.28,6.56-2.28h18.86a12.27,12.27,0,0,0,12.26-12.26V363.3Zm2.63,73.58a6.22,6.22,0,0,1-6.22,6.22H439.28c-5.78,0-8,1.1-11.57,4.12-3.35-2.93-5.78-4.12-11.57-4.12H395.88a6.22,6.22,0,0,1-6.22-6.22V420.8l.32,0H394a3.92,3.92,0,0,1,3.92,3.92v9.93a5.91,5.91,0,0,0,5.91,5.91H404a5.91,5.91,0,0,0,5.91-5.91v-9.93a3.92,3.92,0,0,1,3.92-3.92h4.06a3.92,3.92,0,0,1,3.92,3.92v9.93a5.91,5.91,0,0,0,5.91,5.91h.08a5.91,5.91,0,0,0,5.91-5.91v-9.93a3.92,3.92,0,0,1,3.92-3.92h4.06a3.92,3.92,0,0,1,3.92,3.92v9.93a5.91,5.91,0,0,0,5.91,5.91h.08a5.91,5.91,0,0,0,5.91-5.91v-9.93a3.92,3.92,0,0,1,3.92-3.92h4.06l.3,0Zm0-32.59a5.89,5.89,0,0,0-2.29-.46h-.08a5.91,5.91,0,0,0-5.91,5.91v9.92a3.92,3.92,0,0,1-3.92,3.92H449.5a3.92,3.92,0,0,1-3.92-3.92v-9.92a5.91,5.91,0,0,0-5.91-5.91h-.08a5.91,5.91,0,0,0-5.91,5.91v9.92a3.92,3.92,0,0,1-3.92,3.92h-4.06a3.92,3.92,0,0,1-3.92-3.92v-9.92a5.91,5.91,0,0,0-5.91-5.91h-.08a5.91,5.91,0,0,0-5.91,5.91v9.92a3.92,3.92,0,0,1-3.92,3.92h-4.06a3.92,3.92,0,0,1-3.92-3.92v-9.92a5.91,5.91,0,0,0-5.91-5.91H392a5.89,5.89,0,0,0-2.3.47V386.65l.32,0H394a3.92,3.92,0,0,1,3.92,3.92v9.93a5.91,5.91,0,0,0,5.91,5.91H404a5.91,5.91,0,0,0,5.91-5.91v-9.93a3.92,3.92,0,0,1,3.92-3.92h4.06a3.92,3.92,0,0,1,3.92,3.92v9.93a5.91,5.91,0,0,0,5.91,5.91h.08a5.91,5.91,0,0,0,5.91-5.91v-9.93a3.92,3.92,0,0,1,3.92-3.92h4.06a3.92,3.92,0,0,1,3.92,3.92v9.93a5.91,5.91,0,0,0,5.91,5.91h.08a5.91,5.91,0,0,0,5.91-5.91v-9.93a3.92,3.92,0,0,1,3.92-3.92h4.06l.3,0Zm0-34.15a5.89,5.89,0,0,0-2.29-.46h-.08a5.91,5.91,0,0,0-5.91,5.91v9.92a3.92,3.92,0,0,1-3.92,3.92H449.5a3.92,3.92,0,0,1-3.92-3.92v-9.92a5.91,5.91,0,0,0-5.91-5.91h-.08a5.91,5.91,0,0,0-5.91,5.91v9.92a3.92,3.92,0,0,1-3.92,3.92h-4.06a3.92,3.92,0,0,1-3.92-3.92v-9.92a5.91,5.91,0,0,0-5.91-5.91h-.08a5.91,5.91,0,0,0-5.91,5.91v9.92a3.92,3.92,0,0,1-3.92,3.92h-4.06a3.92,3.92,0,0,1-3.92-3.92v-9.92a5.91,5.91,0,0,0-5.91-5.91H392a5.89,5.89,0,0,0-2.3.47V367h76.1Z" transform="translate(-249.94 -223.76)" style="fill:#cf0a2c"/></svg>